<svg xmlns="http://www.w3.org/2000/svg" width="250" height="250"><path fill="#f2b92e" d="m75 144 5 1 1 2 13 14 3 3 8 8 5 6 14 13q5-1 8-6l3-3 3-3 3-2 6-6 7-8 6-6 4-4 3-3 2-2 3-4 4 1 2 2 9 10 3 3 5 5 3 3 2 2 2 4-4 5-2 2-2 2-2 2-7 8-5 5-10 10-14 13-10 11-5 5-7 6-2 2q-4 6-7 5l-10-8-3-2-7-7-5-5-10-10-13-14-11-10-5-5-6-7-2-2-2-2-2-1-1-4 7-8 1-1 6-6 5-5 3-3zM125 0l10 8 3 2 7 7 5 5 10 10 13 14 11 10 5 5 6 7 2 2 2 2 2 1 1 4-7 8-1 1-5 6-6 5-3 3-5 6-4-1-2-2-13-14-3-3-8-8-5-6-14-13q-5 2-8 6l-3 3-3 3-3 2-6 6-7 8-6 6-4 4-3 3-2 2-3 4-4-1-2-2-9-10-3-3-5-5-3-3-2-2-2-4 4-5 2-2 2-2 2-2 7-8 5-5 10-10 24-24 5-5 7-6 2-2q4-6 7-5"/><path fill="#f3b92e" d="m123 96 6 1 1 2 14 15 3 3 7 7-7 10-2 1-5 5-5 5-3 3-5 6-6-1-1-2-14-16-3-2-7-7 7-10 2-1 5-5 5-5 3-3z"/><path fill="#f2ba2e" d="M220 96q7 1 10 7l2 1 3 4 6 5 4 4 1 1q5 4 4 7-2 5-7 9l-1 2-4 3-6 6-3 3-2 2q-4 5-7 4l-3-3-14-15-3-3-7-7 7-10 2-1 5-5 5-5 3-3z"/><path fill="#f2b92e" d="m30 96 3 3 14 15 3 3 7 7-7 10-2 1-5 5-5 5-3 3-5 6q-7-1-10-7l-2-1-3-4-6-5-4-4-1-1q-5-4-4-7 2-5 7-9l1-2 4-3 6-6 3-3 2-2q4-5 7-4"/></svg>