<svg xmlns="http://www.w3.org/2000/svg" width="408" height="360"><path fill="#50ad94" d="M85 16h238l25 52 11 22 33 74-3 3-10 9-2 2-4 4-15 14-15 16-16 14-16 16-18 17-13 13-15 14-16 16-25 24-2 2-10 10-3 3q-3 4-6 3l-4-3-2-2-27-26-17-17-14-13-17-17-14-13-18-18-14-13-18-18-16-15-13-13-6-6-3-3-4-3q1-10 6-18l33-68 1-2 2-3 1-3 9-19 1-2 7-15 2-3z"/><path fill="#fbfdfd" d="M116 62h176v43h-65l1 28h9c61 3 61 3 80 20l2 6q-2 7-9 10-24 10-49 12l-3 1-30 2-1 90h-46v-91h-15l-10-1h-2q-26-2-49-10l-2-1q-8-3-14-10v-6c7-10 23-13 34-15q20-4 41-6h2l14-1 1-28h-65z"/><path fill="#fcfefd" d="M116 62h176v43h-65l1 28 11 1v2h-12v32l-14 1h-20l-12-1v-32l-7 1h-19q8-3 17-4h8l1-28h-65z"/><path fill="#53af95" d="M181 136v32h46v-32l44 5c29 4 29 4 37 13v5c-15 17-52 16-73 17h-36c-75 1-75 1-97-14l-2-6q3-8 11-10l16-4 34-5h2z"/><path fill="#ecf6f4" d="M239 134q27 0 54 8l-1 3-58-8v-1h5z"/><path fill="#ebf5f4" d="m158 135 3 3h-2c-26 3-26 3-51 10l-1-4 29-7h4c12-3 12-3 18-2"/><path fill="#5fa18f" d="m24 170 9 7 7 6v2l3 1 5 5 2 2 3 3 5 5 3 3 16 15v2l4 2-1 2q-12-10-22-21l-16-15-10-10-3-3-2-2-2-2z"/><path fill="#5ea18e" d="m233 314 2 1-21 22-2 2-2 1-1 2-6 2-4-3-2-2-6-7q4 1 6 5l8 4 6-6h2v-2l3-3z"/><path fill="#5fa28f" d="M152 294q7 2 9 7l5 5 3 2v2l2 1 6 5 3 3 2 2 3 3 6 6-1 2-1-1-6-7-3-2-12-11-9-9-2-2-2-2-2-2z"/><path fill="#daede9" d="m158 135 3 3-13 2h-3l-4 1h-3q-4 0-7-3l9-1 3-1z"/><path fill="#e5f3f1" d="M259 139q18-1 34 3l-1 3-20-3-4-1-9-1z"/><path fill="#5fa18e" d="m114 257 10 8 12 11 6 8h2l-1 2-22-21-3-3-2-2z"/><path fill="#60a18f" d="m386 166 2 1-26 26-1-3 4-3 7-7 4-4 1-1z"/><path fill="#60a18e" d="m258 290 2 1-23 23h-2l5-7 6-5 7-7z"/><path fill="#5fa08e" d="m321 229 2 1-24 24q0-5 5-9l6-5z"/><path fill="#eef8f6" d="m172 134 2 3h-19q8-4 17-3"/><path fill="#5ea08d" d="m281 268 2 1-7 7-2 2-2 2-1 2-4 1 2-4h2l1-3 4-4 2-1 2-2z"/><path fill="#cbe6e0" d="M259 139h21v2h-16l-5-1z"/><path fill="#f0f8f7" d="M116 143v2l-8 3-1-4z"/><path fill="#5fa28f" d="m375 126 5 9v2l1 2-2-1v-2h-2z"/><path fill="#dceeea" d="m120 141-1 4h-3v-2l-3-1z"/></svg>