<svg xmlns="http://www.w3.org/2000/svg" width="360" height="360"><path fill="#7c3001" d="m245 11 14 30 12-3h3q1.847 5.864 3.68 11.731.623 1.988 1.248 3.974C281.565 62.074 283.99 70.455 286 79l2-1c6.907-.783 12.243.042 18 4 4.383 3.799 8.157 8.098 9 14 .494 7.404-.735 13.333-5.312 19.313-2.766 2.765-5.073 4.241-8.688 5.687h-2c.836 4.33.836 4.33 3 8 2.947 1.124 5.831 1.653 8.926 2.25 7.443 1.816 11.7 7.014 15.75 13.21 3.556 6.82 4.762 12.258 4.617 19.852l-.013 2.59c-.017 2.7-.054 5.398-.092 8.098q-.024 2.764-.042 5.527A2017 2017 0 0 1 331 194l3.297-.102c4.55.125 6.284 1.149 9.703 4.102 2.555 4.265 3.377 7.422 3.388 12.37l.029 3.761-.019 4.025q.003 2.085.01 4.169.005 4.358-.017 8.715c-.017 3.712-.007 7.423.01 11.136.012 2.867.008 5.734 0 8.6q-.004 2.054.008 4.106c.008 1.916-.006 3.833-.02 5.749l-.008 3.296c-.62 4.996-2.34 8.174-6.131 11.448-3.731 1.866-6.138 1.752-10.25 1.625l.063 3.697c.073 4.566.119 9.132.157 13.698q.03 2.954.082 5.906c.049 2.845.071 5.69.089 8.535l.062 2.627c.004 9.22-3.057 16.984-9.394 23.717-8.721 7.711-17.403 10.122-28.774 10.087l-3.273.014c-3.62.013-7.24.011-10.86.01q-3.894.009-7.787.02-9.479.023-18.958.023-7.708.002-15.415.012-21.867.026-43.735.025h-4.764c-12.742-.001-25.483.018-38.225.046q-19.639.043-39.277.04c-7.347 0-14.694.005-22.04.027q-10.367.029-20.733.005-3.801-.003-7.602.015c-3.465.015-6.929.006-10.393-.01l-3.024.032c-10.632-.104-18.334-3.734-25.996-11.01-5.636-6.435-8.32-13.612-8.35-22.08l-.011-2.03q-.015-3.375-.019-6.75l-.02-4.835c-.021-5.297-.031-10.594-.041-15.891l-.013-5.474q-.029-12.863-.041-25.724-.015-14.835-.077-29.671-.044-11.473-.048-22.946a2738 2738 0 0 0-.036-13.698q-.034-6.449-.018-12.898 0-2.36-.02-4.72C12.402 154.6 14.895 145.791 24 136c1.95-1.587 3.799-2.765 6-4-1.919-6.16-4.243-11.834-7.11-17.617C22 112 22 112 23 109a104 104 0 0 1 7.898-3.809l2.462-1.098c2.667-1.187 5.341-2.359 8.015-3.53l5.568-2.472q6.828-3.028 13.667-6.037a2386 2386 0 0 0 9.472-4.206 8173 8173 0 0 1 17.85-7.931q11.88-5.267 23.755-10.542l2.915-1.294A8436 8436 0 0 0 156.125 49.5c14.58-6.57 29.17-13.12 43.799-19.582l7.17-3.174q7.065-3.127 14.134-6.243 2.824-1.246 5.646-2.496 3.954-1.75 7.911-3.49l2.427-1.077C242.772 11 242.772 11 245 11"/><path fill="#0a6931" d="m245 11 14 30 12-3h3q1.847 5.864 3.68 11.731.623 1.988 1.248 3.974C281.565 62.074 283.99 70.455 286 79l2-1c6.907-.783 12.243.042 18 4 4.383 3.799 8.157 8.098 9 14 .494 7.404-.735 13.333-5.312 19.313-2.766 2.765-5.073 4.241-8.688 5.687h-2l1.25 3.5c1.527 4.575 2.76 9.201 3.938 13.875l.541 2.127c.722 2.911 1.271 5.486 1.271 8.498H39c-5-13-5-13-6-17h-2a1375 1375 0 0 1-4.562-9.812l-1.327-2.815-1.24-2.705-1.158-2.491C22 112 22 112 23 109a104 104 0 0 1 7.898-3.809l2.462-1.098c2.667-1.187 5.341-2.359 8.015-3.53l5.568-2.472q6.828-3.028 13.667-6.037a2386 2386 0 0 0 9.472-4.206 8173 8173 0 0 1 17.85-7.931q11.88-5.267 23.755-10.542l2.915-1.294A8436 8436 0 0 0 156.125 49.5c14.58-6.57 29.17-13.12 43.799-19.582l7.17-3.174q7.065-3.127 14.134-6.243 2.824-1.246 5.646-2.496 3.954-1.75 7.911-3.49l2.427-1.077C242.772 11 242.772 11 245 11"/><path fill="#8d3400" d="M208.563 190.063A206 206 0 0 1 213 194l1.914 1.672C220.025 200.4 223.521 206.01 227 212l1.41 2.367c8.911 16.187 9.99 35.723 5.563 53.43-5.944 19.575-17.91 35.377-35.711 45.555-18.543 9.37-38.23 11.665-58.262 5.648-19.62-6.654-34.48-19.554-44.25-37.75-8.248-17.646-9.66-37.814-4.129-56.547C96.192 212.427 102.661 203.118 112 194c.645-.665 1.29-1.33 1.953-2.016 25.216-24.338 68.009-22.7 94.61-1.922"/><path fill="#57cc6d" d="m241 66 .75 3.125c1.528 5.216 3.885 8.722 8.063 12.25 5.64 3.007 12.975 1.913 19.187 1.625 1.518 3.556 2.222 6.113 2 10h2l.75-2.187c2.586-5.819 6.186-8.97 11.754-11.86 4.968-1.897 9.69-1.875 14.73-.219 6.749 3.095 11.794 8.068 14.454 15.079 1.063 7.445.275 13.532-3.79 19.917-2.826 3.693-5.651 5.519-9.898 7.27-8.104.97-15.408 1.145-22-4l2 7-2.484 1.137-3.266 1.55c-1.067.5-2.135.998-3.234 1.512-3.795 2.266-6.046 4.86-8.016 8.801l-1 11h-55l1-7c.871-11.486-.622-20.385-8.125-29.375-5.681-5.887-12.558-10.126-20.875-10.625l-2.68-.187c-10.172-.415-16.954 1.867-24.695 8.5-6.445 6.172-10.325 12.619-10.777 21.773-.06 5.832.321 11.098 1.152 16.914H69l-1-7 2.484-.918 3.266-1.27 3.234-1.23c3.935-2.064 6.043-4.637 8.016-8.582.124-2.08.176-4.166.188-6.25l.042-3.39c-.235-3.438-1.002-6.155-2.23-9.36l1.626-.456c9.586-2.692 19.148-5.424 28.624-8.481 8.358-2.693 16.793-5.05 25.258-7.38 8.027-2.229 15.956-4.696 23.88-7.266 6.252-2.018 12.518-3.764 18.882-5.401 4.245-1.156 8.419-2.477 12.605-3.829 10.753-3.464 21.627-6.475 32.521-9.46a302 302 0 0 0 6.655-1.954c3.112-.816 4.9-.697 7.949.227"/><path fill="#8e3500" d="M333.26 193.934c4.777-.115 7.078.903 10.74 4.066 2.555 4.265 3.377 7.422 3.388 12.37l.029 3.761-.019 4.025q.003 2.085.01 4.169.005 4.358-.017 8.715c-.017 3.712-.007 7.423.01 11.136.012 2.867.008 5.734 0 8.6q-.003 2.054.008 4.106c.008 1.916-.006 3.833-.02 5.749l-.008 3.296c-.635 5.123-2.214 8.086-6.159 11.421-3.606 1.849-5.749 2.13-9.775 2.078l-3.883-.023-4.158-.09q-2.15-.03-4.303-.056-4.5-.063-8.997-.163a943 943 0 0 0-11.5-.167c-2.96-.032-5.919-.083-8.879-.14a515 515 0 0 0-4.238-.057c-1.98-.021-3.958-.07-5.936-.12l-3.404-.064c-4.514-.783-7.773-2.671-10.506-6.394-.871-2.917-.913-5.54-.934-8.585l-.038-3.955-.007-4.264-.02-4.386q-.017-4.594-.015-9.187c0-3.92-.027-7.837-.061-11.756-.022-3.019-.026-6.037-.025-9.056a477 477 0 0 0-.027-4.334c-.02-2.022-.011-4.044-.002-6.066l-.008-3.483c.607-3.787 1.799-5.39 4.494-8.08 3.172-2.163 5.876-2.268 9.667-2.319l3.45-.06 3.715-.035 3.834-.059q5.044-.073 10.087-.128c3.404-.04 6.807-.091 10.21-.141 6.066-.087 12.133-.173 18.2-.227 1.7-.018 3.399-.047 5.098-.097"/><path fill="#0e944a" d="m274 38 4.928 15.855Q280.971 60.425 283 67l.962 3.071.831 2.687.716 2.293C286 77 286 77 286 80c-1.828 1.36-1.828 1.36-4.25 2.75-4.589 2.876-6.505 5.369-8.75 10.25h-2l-2-10-3 1c-7.454.665-12.975.644-19-4-4.025-4.46-6.203-8.021-7-14-6.314.42-11.623 1.74-17.582 3.832-3.84 1.312-7.709 2.473-11.606 3.606-.72.21-1.44.42-2.183.635q-2.214.645-4.428 1.286-3.22.939-6.435 1.895c-6.4 1.898-12.804 3.767-19.246 5.52-8.615 2.346-17.118 4.968-25.617 7.705a502 502 0 0 1-18.528 5.572 630 630 0 0 0-9.125 2.649 1864 1864 0 0 1-24.437 7.05l-3.26.927-3.096.87-2.75.776c-2.887.722-5.768 1.225-8.707 1.677l1.5 2.188c2.595 5.202 2.125 11.178 1.5 16.812-2.38 5.554-6.657 8.462-12 11-3.5.813-3.5.813-6 1l1 7H53c-3.374-7.872-3.374-7.872-4.5-11.926l-.75-2.666-.75-2.72-1.5-5.364-.738-2.655c-1.01-3.54-2.104-7.053-3.211-10.564C41 110 41 110 41 107l1.626-.456c9.732-2.733 19.437-5.514 29.062-8.606a423 423 0 0 1 20.473-6.026c2.286-.616 4.563-1.26 6.839-1.912l3.433-.964c11.092-3.222 21.408-7.766 31.88-12.599q2.662-1.216 5.327-2.428 5.272-2.4 10.54-4.812c7.36-3.362 14.76-6.636 22.164-9.901a964 964 0 0 0 15.54-7.01c2.677-1.24 5.358-2.47 8.04-3.699a546 546 0 0 0 3.854-1.795 564 564 0 0 1 5.34-2.468l3.08-1.435c3.12-.99 4.732-.962 7.802.111 1.223 2.031 1.223 2.031 2.063 4.5.766 2.449.766 2.449 1.937 4.5 3.439 1.405 5.814.726 9.29-.328l3.105-.926 3.23-.996 3.16-.95q3.11-.935 6.217-1.886a872 872 0 0 1 10.934-3.237c2.84-.932 5.406-2.319 8.064-3.677 3.496-1.126 6.327-2 10-2"/><path fill="#0e944a" d="M194.828 105.52c8.01 5.46 13.316 12.89 15.172 22.48.445 7.32.042 12.854-2 20h-65c-3.073-10.755-3.546-20.963 2-31 12.376-16.996 31.298-22.375 49.828-11.48"/><path fill="#ea9600" d="M300.23 78.738c6.754 3.08 11.8 8.068 14.457 15.075 1.064 7.445.276 13.532-3.789 19.917-3.623 4.735-7.584 6.942-13.449 7.774-7.287.113-12.844.042-18.64-4.692-5.26-5.27-7.12-9.16-7.497-16.75.286-6.835 1.763-11.265 6.688-16.062 6.796-5.616 13.632-8.108 22.23-5.262"/><path fill="#ec9500" d="M247.938 96.5c5.344 4.198 8.52 7.975 9.57 14.809.345 6.975-.182 12.3-4.621 17.847-5.114 4.997-9.835 7.12-17.012 7.406-6.34-.305-9.991-1.678-14.559-6.246-5.332-5.946-6.848-10.225-6.691-18.277.874-7.081 5.38-11.461 10.629-15.91 6.399-4.137 16.42-3.506 22.684.371"/><path fill="#0f9449" d="M279 117c4.75 1.875 4.75 1.875 7 3 2.204.23 4.414.41 6.625.563l3.602.253L299 121c3.316 8.953 4.87 17.418 7 27h-43c0-12.805 0-12.805 4-17 4.1-3.122 8.359-5.764 13-8z"/><path fill="#410d01" d="M36 140c2 3 2 3 3 9h267l-2-8c6.875.875 6.875.875 8 2 .188 3.438.188 3.438 0 7-2.473 2.473-3.163 2.251-6.567 2.254l-2.932.018-3.244-.011-3.429.011c-3.817.01-7.634.007-11.451.003q-4.089.006-8.178.015-9.978.018-19.954.012a14493 14493 0 0 0-23.218.01q-21.96.013-43.92.003c-13.407-.006-26.814.006-40.221.025q-20.629.03-41.257.024-11.59-.005-23.18.014-9.864.019-19.73.002-5.037-.01-10.075.005c-3.634.01-7.267.002-10.901-.01l-3.244.022-2.932-.022h-2.545L33 152c-2.15-3.224-2.383-4.267-2-8l2-2h3z"/><path fill="#54c86b" d="M216 43c1.328 1.96 1.328 1.96 2.25 4.375l.953 2.398c.62 1.735 1.214 3.48 1.797 5.227l-3.121.918-2.057.605-4.601 1.352a3475 3475 0 0 0-11.256 3.324 1237 1237 0 0 1-22.304 6.392c-9.034 2.5-17.964 5.098-26.829 8.147-4.92 1.656-9.907 3.08-14.894 4.512l-2.709.783C128.837 82.281 124.535 83.375 120 84c3.58-3.017 7.632-4.79 11.875-6.668l2.379-1.067c2.58-1.156 5.163-2.304 7.746-3.453l5.382-2.406A8966 8966 0 0 1 164 63l5.233-2.33c6.34-2.82 12.682-5.642 19.027-8.454l2.131-.945q2.031-.9 4.064-1.795a261 261 0 0 0 8.816-4.067l2.928-1.42 2.476-1.246c2.852-.911 4.5-.667 7.325.257"/><path fill="#e69805" d="M247.938 96.5c5.344 4.198 8.52 7.975 9.57 14.809.345 6.975-.182 12.3-4.621 17.847-5.114 4.997-9.835 7.12-17.012 7.406-6.34-.305-9.991-1.678-14.559-6.246-5.332-5.946-6.848-10.225-6.691-18.277.874-7.081 5.38-11.461 10.629-15.91 6.399-4.137 16.42-3.506 22.684.371M222 104c-3.362 4.727-3.858 9.369-3 15 1.733 5.284 4.213 9.008 9 12 5.829 1.82 11.893 2.053 17.375-.687 4.264-3.757 7.305-6.975 7.863-12.801.16-6.059.004-9.812-4.238-14.512-5.388-4.746-8.77-5.47-15.879-5.41-4.914.646-7.823 2.815-11.121 6.41"/><path fill="#ee7800" d="M283.125 224.563c4.49.506 6.345 1.595 9.547 4.66C294 231 294 231 294.687 234.5c-.794 4.046-2.056 6.343-4.687 9.5-3.606 1.202-6.21 1.327-10 1-3.39-2.137-4.726-3.177-6-7-.375-3.375-.375-3.375 0-7 2.438-2.875 2.438-2.875 5-5 1-1 1-1 4.125-1.437"/><path fill="#e67600" d="M300.344 83.887c4.703 2.641 8.03 5.905 9.656 11.113.914 5.327.594 9.65-2.125 14.375-2.574 3.522-4.802 5.848-8.875 7.625-5.63.743-10.337.802-15.5-1.687-4.143-3.833-7.183-7.007-7.738-12.801-.16-6.045-.065-9.878 4.238-14.512 5.677-5.8 12.705-7.003 20.344-4.113M280 92c-2.536 4.241-2.79 8.169-2 13 1.814 4.056 4.214 6.47 7.875 8.938 4.9 1.666 8.48 1.707 13.313-.188 3.912-2.435 6.338-4.329 7.812-8.75.578-4.599 1.057-9.08-1.234-13.242-3.085-3.68-5.302-5.448-10.22-6.067-7.021-.323-11.104.663-15.546 6.309m-38 6c5.018 2.42 8.5 6 11 11 .528 6.212.744 11.758-3 17-3.992 3.907-7.06 6.147-12.687 6.25-4.768-.076-8.162-.727-12.313-3.25-4.584-5.036-6.432-9.783-6.344-16.586.78-5.476 4.059-9.16 7.906-12.914 5.143-2.244 9.915-2.251 15.438-1.5m-19.121 9.059c-1.87 4.13-1.491 8.54-.879 12.941 1.914 4.734 5.454 7.727 10 10 5.286.448 8.959.258 13.457-2.676 3.3-2.832 5.107-6.043 5.922-10.308.261-4.352-.617-7.804-2.977-11.473-3.186-3.506-7.364-5.195-11.964-5.98-5.445.977-10.135 2.987-13.56 7.496"/><path fill="#e67700" d="M289 94h7v13h-7z"/><path fill="#e57400" d="M233 109h6v13h-6z"/><path fill="#47bc63" d="m138 77-1 3c-3.055 1.203-3.055 1.203-6.875 2.25l-3.805 1.078C123 84 123 84 120 83q3.648-1.798 7.313-3.562l2.091-1.038c5.256-2.513 5.256-2.513 8.596-1.4"/></svg>